<svg xmlns="http://www.w3.org/2000/svg" version="1.1" xmlns:xlink="http://www.w3.org/1999/xlink" xmlns:svgjs="http://svgjs.dev/svgjs" width="1440" height="560" preserveAspectRatio="none" viewBox="0 0 1440 560">
    <g mask="url(&quot;#SvgjsMask1059&quot;)" fill="none">
        <rect width="1440" height="560" x="0" y="0" fill="#111724"></rect>
        <path d="M479.13468300026625 435.05391408728286L336.11150340700317 414.95331704545566 459.03408595843905 578.0770936805459z" fill="rgba(28, 39, 142, 0.68)" class="triangle-float2"></path>
        <path d="M390.217,527.218C407.604,526.78,422.551,516.204,431.373,501.215C440.34,485.98,442.967,467.401,434.585,451.837C425.783,435.493,408.766,424.047,390.217,424.793C372.685,425.498,360.333,439.939,351.627,455.173C343.007,470.256,337.1,488.07,345.302,503.384C353.879,519.398,372.057,527.676,390.217,527.218" fill="rgba(28, 39, 142, 0.68)" class="triangle-float2"></path>
        <path d="M444.28,331.64C475.316,331.811,507.796,321.044,522.412,293.665C536.429,267.407,522.839,237.565,508.392,211.541C493.328,184.406,475.258,154.823,444.28,152.919C410.861,150.865,380.981,173.357,364.891,202.72C349.417,230.96,350.74,265.393,367.625,292.813C383.722,318.953,413.581,331.471,444.28,331.64" fill="rgba(28, 39, 142, 0.68)" class="triangle-float2"></path>
        <path d="M68.051,569.272C120.926,571.117,171.51,540.723,195.252,493.442C217.075,449.984,200.809,399.369,173.613,359.055C149.907,323.913,110.346,307.714,68.051,304.882C18.637,301.573,-38.947,301.076,-65.21,343.064C-92.394,386.526,-70.674,440.903,-44.654,485.072C-19.142,528.378,17.82,567.52,68.051,569.272" fill="rgba(28, 39, 142, 0.68)" class="triangle-float1"></path>
        <path d="M402.79450440525994 347.18185618008505L356.4175316249174 300.8048833997425 310.0405588445748 393.55882896042766z" fill="rgba(28, 39, 142, 0.68)" class="triangle-float3"></path>
        <path d="M1304.018,312.266C1332.617,312.222,1359.086,298.118,1374.261,273.877C1390.475,247.975,1394.866,216.076,1381.403,188.643C1366.191,157.646,1338.539,130.005,1304.018,130.745C1270.332,131.467,1247.065,161.619,1232.175,191.844C1219.188,218.207,1218.343,248.855,1233.4,274.093C1248.093,298.722,1275.339,312.31,1304.018,312.266" fill="rgba(28, 39, 142, 0.68)" class="triangle-float3"></path>
        <path d="M547.0922606278059 180.46332779880703L482.4460111853534 41.82899848448059 343.811681871027 106.47524792693304 408.45793131347943 245.10957724125947z" fill="rgba(28, 39, 142, 0.68)" class="triangle-float2"></path>
        <path d="M1053.7656531369985 528.0070882633486L1099.2070374280102 442.5442742052698 968.3028390789196 482.56570397233685z" fill="rgba(28, 39, 142, 0.68)" class="triangle-float2"></path>
        <path d="M904.617426458583 115.60427706628434L832.4745044218106 187.7471991030568 904.617426458583 259.89012113982926 976.7603484953555 187.7471991030568z" fill="rgba(28, 39, 142, 0.68)" class="triangle-float1"></path>
        <path d="M512.97,774.26C564.859,773.101,605.133,732.901,628.966,686.794C650.733,644.684,648.507,596.248,626.757,554.129C602.775,507.687,565.146,465.286,512.97,462.164C455.996,458.755,400.176,488.817,372.868,538.936C346.552,587.235,359.505,644.921,387.642,692.182C415.022,738.172,459.46,775.455,512.97,774.26" fill="rgba(28, 39, 142, 0.68)" class="triangle-float3"></path>
        <path d="M732.164090481112 341.86960344177277L734.2627731346593 281.7711954143322 643.0658197667249 308.6723754477316z" fill="rgba(28, 39, 142, 0.68)" class="triangle-float3"></path>
        <path d="M851.305,508.008C893.956,509.973,934.604,487.464,956.109,450.579C977.767,413.432,975.8,367.838,954.96,330.225C933.419,291.346,895.744,262.329,851.305,261.423C805.389,260.487,760.456,284.696,740.063,325.846C721.367,363.57,740.052,405.701,761.995,441.634C782.714,475.562,811.593,506.178,851.305,508.008" fill="rgba(28, 39, 142, 0.68)" class="triangle-float2"></path>
        <path d="M911.0921985558906-42.348213858824685L825.1447893687852 80.39740725638882 1033.8378196711042 43.59919532828072z" fill="rgba(28, 39, 142, 0.68)" class="triangle-float1"></path>
        <path d="M115.107,587.81C167.688,586.173,207.796,545.601,232.792,499.313C256.373,455.646,259.739,405.039,237.859,360.496C212.843,309.569,171.735,263.272,115.107,259.728C53.075,255.846,-8.384,288.349,-37.492,343.264C-65.132,395.41,-47.235,456.986,-15.991,507.056C13.13,553.724,60.125,589.521,115.107,587.81" fill="rgba(28, 39, 142, 0.68)" class="triangle-float2"></path>
        <path d="M288.1205863935822 173.34893740956136L334.2264379471928 102.35215197532025 204.67833401902584 68.69176736202493z" fill="rgba(28, 39, 142, 0.68)" class="triangle-float2"></path>
    </g>
    <defs>
        <mask id="SvgjsMask1059">
            <rect width="1440" height="560" fill="#ffffff"></rect>
        </mask>
        <style>
            @keyframes float1 {
                    0%{transform: translate(0, 0)}
                    50%{transform: translate(-10px, 0)}
                    100%{transform: translate(0, 0)}
                }

                .triangle-float1 {
                    animation: float1 5s infinite;
                }

                @keyframes float2 {
                    0%{transform: translate(0, 0)}
                    50%{transform: translate(-5px, -5px)}
                    100%{transform: translate(0, 0)}
                }

                .triangle-float2 {
                    animation: float2 4s infinite;
                }

                @keyframes float3 {
                    0%{transform: translate(0, 0)}
                    50%{transform: translate(0, -10px)}
                    100%{transform: translate(0, 0)}
                }

                .triangle-float3 {
                    animation: float3 6s infinite;
                }
        </style>
    </defs>
</svg>